<svg xmlns="http://www.w3.org/2000/svg" viewBox="0 0 919 120" width="919" height="120" role="img" aria-label="Presidentl">
  <g transform="translate(20,106.40)"><path d="M2.4 -19.68H8.4V-73.67999999999999H2.4V-93.36H55.08Q70.56 -93.36 78.72 -86.69999999999999Q86.88 -80.03999999999999 86.88 -65.16Q86.88 -50.28 78.72 -43.620000000000005Q70.56 -36.96 55.08 -36.96H42.0V-19.68H53.519999999999996V0.0H2.4ZM46.08 -54.0Q53.04 -54.0 53.04 -61.68V-66.0Q53.04 -69.96 51.3 -71.82Q49.559999999999995 -73.67999999999999 46.08 -73.67999999999999H42.0V-54.0Z M92.16000000000001 -19.68H98.16000000000001V-73.67999999999999H92.16000000000001V-93.36H147.24Q162.72 -93.36 170.88 -87.0Q179.04000000000002 -80.64 179.04000000000002 -66.36Q179.04000000000002 -58.32 175.8 -52.44Q172.56 -46.559999999999995 166.56 -44.28L166.68 -43.08Q178.2 -41.28 178.2 -28.919999999999998V-19.68H183.84V0.0H145.8V-28.2Q145.8 -32.879999999999995 144.42000000000002 -35.28Q143.04000000000002 -37.68 140.10000000000002 -38.519999999999996Q137.16 -39.36 131.76 -39.36V-19.68H139.68V0.0H92.16000000000001ZM138.24 -54.0Q141.72 -54.0 143.45999999999998 -55.86Q145.2 -57.72 145.2 -61.68V-66.0Q145.2 -69.96 143.45999999999998 -71.82Q141.72 -73.67999999999999 138.24 -73.67999999999999H131.76V-54.0Z M189.36 0.0V-19.68H195.36V-73.67999999999999H189.36V-93.36H270.36V-57.12H243.48000000000002V-73.67999999999999H228.96V-54.72H239.52V-41.04H228.96V-19.68H243.48000000000002V-38.64H270.36V0.0Z M275.76000000000005 -4.8V-28.56H302.16Q302.16 -24.84 303.84000000000003 -23.16Q305.52000000000004 -21.48 309.96000000000004 -21.48Q313.68 -21.48 315.3 -22.619999999999997Q316.92 -23.759999999999998 316.92 -26.04Q316.92 -27.959999999999997 315.36 -29.339999999999996Q313.8 -30.72 309.96000000000004 -32.16L299.64000000000004 -35.76Q286.32000000000005 -40.8 280.5 -47.64Q274.68 -54.48 274.68 -66.12Q274.68 -80.28 283.98 -87.66Q293.28000000000003 -95.03999999999999 315.0 -95.03999999999999Q325.44000000000005 -95.03999999999999 334.62 -92.94Q343.8 -90.84 349.44000000000005 -87.36V-65.88H325.44000000000005Q325.44000000000005 -71.88 318.0 -71.88Q314.40000000000003 -71.88 312.90000000000003 -70.97999999999999Q311.40000000000003 -70.08 311.40000000000003 -67.8Q311.40000000000003 -65.75999999999999 313.14 -64.56Q314.88 -63.36 318.84000000000003 -62.04L329.28000000000003 -58.44Q342.0 -54.12 347.82000000000005 -47.22Q353.64000000000004 -40.32 353.64000000000004 -29.16Q353.64000000000004 -13.92 343.38 -6.12Q333.12 1.68 313.32000000000005 1.68Q301.8 1.68 291.54 -0.29999999999999993Q281.28000000000003 -2.28 275.76000000000005 -4.8Z M358.2 0.0V-19.68H364.2V-73.67999999999999H358.2V-93.36H403.8V-73.67999999999999H397.8V-19.68H403.8V0.0Z M409.8 -19.68H415.8V-73.56H409.8V-93.36H458.52000000000004Q478.56000000000006 -93.36 490.38000000000005 -82.38Q502.20000000000005 -71.39999999999999 502.20000000000005 -46.68Q502.20000000000005 -21.96 490.38000000000005 -10.98Q478.56000000000006 0.0 458.52000000000004 0.0H409.8ZM456.36 -19.68Q460.44000000000005 -19.68 462.48 -21.84Q464.52000000000004 -24.0 464.52000000000004 -28.56V-64.8Q464.52000000000004 -73.67999999999999 456.36 -73.67999999999999H449.40000000000003V-19.68Z M507.48 0.0V-19.68H513.48V-73.67999999999999H507.48V-93.36H588.48V-57.12H561.6V-73.67999999999999H547.08V-54.72H557.64V-41.04H547.08V-19.68H561.6V-38.64H588.48V0.0Z M663.36 -93.36H702.72V-73.67999999999999H696.72V0.0H663.0L627.84 -54.12V-19.68H633.6V0.0H594.24V-19.68H600.24V-73.67999999999999H594.24V-93.36H637.5600000000001L669.12 -45.239999999999995V-73.67999999999999H663.36Z M798.0 -64.32H777.36V-73.67999999999999H769.6800000000001V-19.68H778.08V0.0H727.6800000000001V-19.68H736.08V-73.67999999999999H728.4000000000001V-64.32H707.76V-93.36H798.0Z M803.28 0.0V-19.68H809.28V-73.67999999999999H803.28V-93.36H853.92V-73.67999999999999H842.88V-19.68H853.68V-30.72H877.56V0.0Z" fill="#2E4A7A"/></g>
</svg>
