<svg xmlns="http://www.w3.org/2000/svg" viewBox="0 0 1086 242" width="1086" height="242" role="img" aria-label="Presidentl">
  <rect width="1086" height="242" fill="#F6EFDF"/>
  <circle cx="121.00" cy="121.00" r="91.00" fill="#2E4A7A"/>
  <rect x="85.25" y="69.00" width="71.50" height="58.50" rx="6.50" fill="#F6EFDF"/>
  <rect x="85.25" y="108.00" width="71.50" height="19.50" fill="#A63A32"/>
  <rect x="65.75" y="127.50" width="110.50" height="16.90" rx="8.45" fill="#F6EFDF"/>
  <polygon points="121.00,153.50 126.85,168.45 142.45,169.10 130.10,178.85 134.65,193.80 121.00,184.70 107.35,193.80 111.90,178.85 99.55,169.10 115.15,168.45" fill="#F6EFDF"/>
  <g transform="translate(250.00,160.60)"><path d="M2.2 -18.04H7.7V-67.54H2.2V-85.58H50.49Q64.68 -85.58 72.16 -79.475Q79.64 -73.37 79.64 -59.73Q79.64 -46.09 72.16 -39.985Q64.68 -33.88 50.49 -33.88H38.5V-18.04H49.06V0.0H2.2ZM42.24 -49.5Q48.62 -49.5 48.62 -56.54V-60.5Q48.62 -64.13 47.025 -65.83500000000001Q45.43 -67.54 42.24 -67.54H38.5V-49.5Z M84.48 -18.04H89.98V-67.54H84.48V-85.58H134.97Q149.16 -85.58 156.64 -79.75Q164.12 -73.92 164.12 -60.83Q164.12 -53.46 161.15 -48.07Q158.18 -42.68 152.68 -40.59L152.79000000000002 -39.49Q163.35000000000002 -37.84 163.35000000000002 -26.51V-18.04H168.51999999999998V0.0H133.65V-25.85Q133.65 -30.14 132.385 -32.34Q131.12 -34.54 128.425 -35.31Q125.73 -36.08 120.78 -36.08V-18.04H128.04V0.0H84.48ZM126.72 -49.5Q129.91 -49.5 131.505 -51.205Q133.1 -52.910000000000004 133.1 -56.54V-60.5Q133.1 -64.13 131.505 -65.83500000000001Q129.91 -67.54 126.72 -67.54H120.78V-49.5Z M173.57999999999998 0.0V-18.04H179.07999999999998V-67.54H173.57999999999998V-85.58H247.82999999999998V-52.36H223.19V-67.54H209.88V-50.160000000000004H219.56V-37.62H209.88V-18.04H223.19V-35.42H247.82999999999998V0.0Z M252.78 -4.4V-26.18H276.98Q276.98 -22.77 278.52 -21.23Q280.06 -19.69 284.13 -19.69Q287.54 -19.69 289.025 -20.735Q290.51 -21.78 290.51 -23.87Q290.51 -25.63 289.08 -26.895Q287.65 -28.16 284.13 -29.48L274.67 -32.78Q262.46 -37.4 257.125 -43.67Q251.79 -49.94 251.79 -60.61Q251.79 -73.59 260.315 -80.355Q268.84 -87.12 288.75 -87.12Q298.32 -87.12 306.735 -85.195Q315.15 -83.27 320.32 -80.08V-60.39H298.32Q298.32 -65.89 291.5 -65.89Q288.2 -65.89 286.825 -65.065Q285.45 -64.24 285.45 -62.15Q285.45 -60.28 287.04499999999996 -59.18Q288.64 -58.08 292.27 -56.87L301.84 -53.57Q313.5 -49.61 318.83500000000004 -43.285Q324.17 -36.96 324.17 -26.73Q324.17 -12.76 314.765 -5.609999999999999Q305.36 1.54 287.21 1.54Q276.65 1.54 267.245 -0.2749999999999999Q257.84 -2.09 252.78 -4.4Z M328.34999999999997 0.0V-18.04H333.84999999999997V-67.54H328.34999999999997V-85.58H370.15V-67.54H364.65V-18.04H370.15V0.0Z M375.65 -18.04H381.15V-67.43H375.65V-85.58H420.31Q438.68 -85.58 449.515 -75.515Q460.35 -65.45 460.35 -42.79Q460.35 -20.13 449.515 -10.065Q438.68 0.0 420.31 0.0H375.65ZM418.33 -18.04Q422.07 -18.04 423.94 -20.02Q425.81 -22.0 425.81 -26.18V-59.4Q425.81 -67.54 418.33 -67.54H411.95V-18.04Z M465.19 0.0V-18.04H470.69V-67.54H465.19V-85.58H539.44V-52.36H514.8V-67.54H501.49V-50.160000000000004H511.17V-37.62H501.49V-18.04H514.8V-35.42H539.44V0.0Z M608.0799999999999 -85.58H644.16V-67.54H638.66V0.0H607.75L575.52 -49.61V-18.04H580.8V0.0H544.72V-18.04H550.22V-67.54H544.72V-85.58H584.43L613.36 -41.47V-67.54H608.0799999999999Z M731.5 -58.96H712.58V-67.54H705.54V-18.04H713.24V0.0H667.04V-18.04H674.74V-67.54H667.7V-58.96H648.78V-85.58H731.5Z M736.34 0.0V-18.04H741.84V-67.54H736.34V-85.58H782.76V-67.54H772.64V-18.04H782.54V-28.16H804.43V0.0Z" fill="#2E4A7A"/></g>
</svg>
