<svg xmlns="http://www.w3.org/2000/svg" viewBox="0 0 767 323" width="767" height="323" role="img" aria-label="Presidentl">
  <circle cx="383.70" cy="112.00" r="80.00" fill="#2E4A7A"/>
  <rect x="352.27" y="66.29" width="62.86" height="51.43" rx="5.71" fill="#F6EFDF"/>
  <rect x="352.27" y="100.57" width="62.86" height="17.14" fill="#A63A32"/>
  <rect x="335.12" y="117.71" width="97.14" height="14.86" rx="7.43" fill="#F6EFDF"/>
  <polygon points="383.70,140.57 388.84,153.71 402.55,154.29 391.70,162.86 395.70,176.00 383.70,168.00 371.70,176.00 375.70,162.86 364.84,154.29 378.55,153.71" fill="#F6EFDF"/>
  <g transform="translate(32.00,291.12)"><path d="M1.92 -15.744H6.72V-58.944H1.92V-74.688H44.064Q56.448 -74.688 62.976 -69.36Q69.504 -64.032 69.504 -52.128Q69.504 -40.224000000000004 62.976 -34.896Q56.448 -29.568 44.064 -29.568H33.6V-15.744H42.816V0.0H1.92ZM36.864000000000004 -43.2Q42.432 -43.2 42.432 -49.344V-52.800000000000004Q42.432 -55.968 41.040000000000006 -57.456Q39.648 -58.944 36.864000000000004 -58.944H33.6V-43.2Z M73.728 -15.744H78.52799999999999V-58.944H73.728V-74.688H117.792Q130.176 -74.688 136.704 -69.6Q143.232 -64.512 143.232 -53.088Q143.232 -46.656 140.64 -41.952Q138.048 -37.248 133.248 -35.424L133.344 -34.464Q142.56 -33.024 142.56 -23.136V-15.744H147.072V0.0H116.63999999999999V-22.56Q116.63999999999999 -26.304000000000002 115.53599999999999 -28.224000000000004Q114.43199999999999 -30.144000000000002 112.07999999999998 -30.816000000000003Q109.728 -31.488 105.40799999999999 -31.488V-15.744H111.744V0.0H73.728ZM110.59199999999998 -43.2Q113.37599999999999 -43.2 114.768 -44.688Q116.16 -46.176 116.16 -49.344V-52.800000000000004Q116.16 -55.968 114.768 -57.456Q113.37599999999999 -58.944 110.59199999999998 -58.944H105.40799999999999V-43.2Z M151.48799999999997 0.0V-15.744H156.28799999999998V-58.944H151.48799999999997V-74.688H216.28799999999998V-45.696H194.784V-58.944H183.16799999999998V-43.776H191.61599999999999V-32.832H183.16799999999998V-15.744H194.784V-30.912H216.28799999999998V0.0Z M220.608 -3.84V-22.848H241.728Q241.728 -19.872 243.072 -18.528Q244.416 -17.184 247.968 -17.184Q250.944 -17.184 252.24 -18.096Q253.536 -19.008 253.536 -20.832Q253.536 -22.368000000000002 252.288 -23.472Q251.04 -24.576 247.968 -25.728L239.712 -28.608Q229.056 -32.64 224.4 -38.112Q219.744 -43.584 219.744 -52.896Q219.744 -64.224 227.184 -70.128Q234.624 -76.032 252.0 -76.032Q260.352 -76.032 267.696 -74.352Q275.04 -72.672 279.552 -69.888V-52.704H260.352Q260.352 -57.504 254.4 -57.504Q251.52 -57.504 250.32 -56.784Q249.12 -56.064 249.12 -54.24Q249.12 -52.608000000000004 250.512 -51.648Q251.904 -50.688 255.072 -49.632L263.424 -46.752Q273.6 -43.296 278.256 -37.775999999999996Q282.912 -32.256 282.912 -23.328Q282.912 -11.136000000000001 274.70399999999995 -4.896000000000001Q266.496 1.344 250.656 1.344Q241.44 1.344 233.232 -0.24Q225.024 -1.824 220.608 -3.84Z M286.56 0.0V-15.744H291.36V-58.944H286.56V-74.688H323.03999999999996V-58.944H318.24V-15.744H323.03999999999996V0.0Z M327.84 -15.744H332.64V-58.848H327.84V-74.688H366.816Q382.84799999999996 -74.688 392.304 -65.904Q401.76 -57.120000000000005 401.76 -37.344Q401.76 -17.568 392.304 -8.784Q382.84799999999996 0.0 366.816 0.0H327.84ZM365.08799999999997 -15.744Q368.352 -15.744 369.984 -17.472Q371.616 -19.2 371.616 -22.848V-51.84Q371.616 -58.944 365.08799999999997 -58.944H359.52V-15.744Z M405.984 0.0V-15.744H410.784V-58.944H405.984V-74.688H470.784V-45.696H449.28V-58.944H437.664V-43.776H446.11199999999997V-32.832H437.664V-15.744H449.28V-30.912H470.784V0.0Z M530.688 -74.688H562.1759999999999V-58.944H557.376V0.0H530.4L502.272 -43.296V-15.744H506.88V0.0H475.392V-15.744H480.192V-58.944H475.392V-74.688H510.048L535.2959999999999 -36.192V-58.944H530.688Z M638.4000000000001 -51.456H621.888V-58.944H615.744V-15.744H622.464V0.0H582.144V-15.744H588.864V-58.944H582.72V-51.456H566.2080000000001V-74.688H638.4000000000001Z M642.624 0.0V-15.744H647.4240000000001V-58.944H642.624V-74.688H683.1360000000001V-58.944H674.3040000000001V-15.744H682.9440000000001V-24.576H702.0480000000001V0.0Z" fill="#2E4A7A"/></g>
</svg>
